<?xml version="1.0" encoding="utf-8"?>
<!-- Generator: Adobe Illustrator 23.0.0, SVG Export Plug-In . SVG Version: 6.00 Build 0)  -->
<svg version="1.1" id="레이어_1" xmlns="http://www.w3.org/2000/svg" xmlns:xlink="http://www.w3.org/1999/xlink" x="0px"
	 y="0px" viewBox="0 0 96 113.82" style="enable-background:new 0 0 96 113.82;" xml:space="preserve">
<style type="text/css">
	.st0{fill:#FFFFFF;}
	.st1{fill:#FBA919;}
	.st2{fill:#F99B1C;}
</style>
<g>
	<path class="st0" d="M48.43,6.35c0,0-15.35,15.18-43.16,16.01c0,0-5.71,57.57,43.14,84.92c0,0,46.86-21.57,42.97-85.03
		C91.38,22.24,69.46,23.48,48.43,6.35z"/>
	<path class="st1" d="M48.3,10.68c0,0-13.83,13.68-38.88,14.42c0,0-5.15,51.86,38.86,76.51c0,0,42.21-19.43,38.71-76.61
		C87,25,67.24,26.12,48.3,10.68z"/>
	<path class="st2" d="M87,25L22.86,78.17c0,0,8.68,14.17,25.14,23.46C48,101.63,89.74,82.89,87,25z"/>
	<path class="st1" d="M89.92,22.92c3.78,61.65-41.74,82.61-41.74,82.61C0.72,78.95,6.27,23.03,6.27,23.03
		C33.28,22.22,48.2,7.47,48.2,7.47C68.62,24.12,89.92,22.92,89.92,22.92z M48.41,1.98c0,0-16.53,16.35-46.48,17.24
		c0,0-6.15,62,46.46,91.46c0,0,50.47-23.23,46.28-91.58C94.67,19.1,71.06,20.43,48.41,1.98z"/>
	<g>
		<path class="st0" d="M39.43,49.28l-3.91-6.36l10.96-7.49h7.34v36.7h-9.3V45.85L39.43,49.28z"/>
	</g>
</g>
</svg>
